<?xml version="1.0" encoding="UTF-8" standalone="no"?>
<!DOCTYPE svg PUBLIC "-//W3C//DTD SVG 1.1//EN" "http://www.w3.org/Graphics/SVG/1.1/DTD/svg11.dtd">
<svg width="100%" height="100%" viewBox="0 0 989 1128" version="1.1" xmlns="http://www.w3.org/2000/svg" xmlns:xlink="http://www.w3.org/1999/xlink" xml:space="preserve" xmlns:serif="http://www.serif.com/" style="fill-rule:evenodd;clip-rule:evenodd;stroke-linejoin:round;stroke-miterlimit:2;">
    <g transform="matrix(1,0,0,1,-107,-36)">
        <g>
            <path d="M595.164,234.419C351.562,234.419 154.084,431.909 154.084,675.512C154.084,919.125 351.562,1116.605 595.164,1116.605C838.766,1116.605 1036.244,919.126 1036.244,675.512C1036.244,431.91 838.766,234.419 595.164,234.419ZM595.164,1023.74C402.837,1023.74 246.947,867.827 246.947,675.512C246.947,483.196 402.837,327.283 595.164,327.283C787.468,327.283 943.381,483.195 943.381,675.512C943.38,867.827 787.468,1023.74 595.164,1023.74Z" style="fill:rgb(203,166,255);fill-rule:nonzero;"/>
            <path d="M635.804,675.512C635.804,697.944 617.596,716.128 595.163,716.128C572.73,716.128 554.547,697.944 554.547,675.512C554.547,653.079 572.731,634.884 595.163,634.884C617.595,634.884 635.804,653.079 635.804,675.512Z" style="fill:rgb(203,166,255);fill-rule:nonzero;"/>
            <path d="M695.957,155.75C746.329,80.073 845.817,52.715 934.55,86.363C935.595,83.515 936.948,80.679 938.609,77.924C950.146,58.672 971.748,50.423 986.869,59.491C1001.991,68.559 1004.886,91.502 993.35,110.742C992.139,112.784 990.787,114.682 989.387,116.475C1071.283,177.517 1099.58,285.491 1053.978,370.403L889.899,272.031L857.069,326.784L822.222,305.894L855.051,251.143L695.957,155.75Z" style="fill:rgb(203,166,255);fill-rule:nonzero;"/>
            <path d="M504.033,149.959C453.66,74.269 354.173,46.899 265.464,80.56C264.396,77.7 263.042,74.874 261.405,72.121C249.844,52.869 228.243,44.62 213.121,53.676C198.023,62.744 195.104,85.699 206.64,104.95C207.875,106.969 209.204,108.879 210.628,110.66C128.708,171.702 100.435,279.688 146.013,364.587L310.092,266.228L342.922,320.981L377.77,300.091L344.94,245.338L504.033,149.959Z" style="fill:rgb(203,166,255);fill-rule:nonzero;"/>
            <path d="M824.072,1145.565C826.921,1151.154 837.437,1151.511 847.549,1146.348L888.474,1125.494C898.587,1120.343 904.498,1111.643 901.649,1106.052L850.849,1006.375C848,1000.785 837.509,1000.441 827.395,1005.604L786.447,1026.446C776.335,1031.597 770.447,1040.309 773.296,1045.9L824.072,1145.565Z" style="fill:rgb(203,166,255);fill-rule:nonzero;"/>
            <path d="M370.599,1145.565C367.751,1151.154 357.234,1151.511 347.122,1146.348L306.197,1125.494C296.085,1120.343 290.174,1111.643 293.022,1106.052L343.822,1006.375C346.647,1000.785 357.187,1000.441 367.3,1005.604L408.201,1026.446C418.337,1031.597 424.225,1040.309 421.376,1045.9L370.599,1145.565Z" style="fill:rgb(203,166,255);fill-rule:nonzero;"/>
            <path d="M811.277,676.129C811.277,676.129 740.892,644.699 612.872,676.129C612.872,676.129 700.728,706.371 811.277,676.129Z" style="fill:rgb(203,166,255);fill-rule:nonzero;"/>
            <path d="M595.164,356.303C595.164,356.303 545.218,469.522 595.164,675.512C595.164,675.512 643.234,534.162 595.164,356.303Z" style="fill:rgb(203,166,255);fill-rule:nonzero;"/>
        </g>
    </g>
</svg>
